<?xml version="1.0" encoding="utf-8"?>
<!-- Generator: Adobe Illustrator 24.1.1, SVG Export Plug-In . SVG Version: 6.00 Build 0)  -->
<svg version="1.1" id="Layer_1" xmlns="http://www.w3.org/2000/svg" xmlns:xlink="http://www.w3.org/1999/xlink" x="0px" y="0px"
	 viewBox="0 0 512 512" style="enable-background:new 0 0 512 512;" xml:space="preserve">
<g>
	<path d="M473.6,448H192c-21.2,0-38.4-17.2-38.4-38.4c0-1.2,0.3-30.5,23.6-59.3c13.4-16.5,31.8-29.7,54.5-39
		c27.4-11.3,61.4-16.9,101.1-16.9s73.6,5.7,101.1,16.9c22.7,9.3,41,22.4,54.5,39c23.4,28.8,23.6,58,23.6,59.3
		C512,430.8,494.8,448,473.6,448z M179.2,409.7c0,7,5.8,12.7,12.8,12.7h281.6c7,0,12.8-5.7,12.8-12.7c0-0.9-0.8-22.9-18.9-44.4
		C442.5,335.6,396,320,332.8,320s-109.7,15.7-134.7,45.3C180,386.8,179.2,408.8,179.2,409.7z"/>
	<path d="M332.8,268.8c-56.5,0-102.4-45.9-102.4-102.4S276.3,64,332.8,64s102.4,45.9,102.4,102.4S389.3,268.8,332.8,268.8z
		 M332.8,89.6c-42.3,0-76.8,34.5-76.8,76.8s34.5,76.8,76.8,76.8s76.8-34.5,76.8-76.8S375.1,89.6,332.8,89.6z"/>
	<path d="M115.2,448H38.4C17.2,448,0,430.8,0,409.6c0-0.9,0.2-23.7,17-46.1c9.7-12.9,22.9-23.2,39.2-30.4
		C75.8,324.4,99.9,320,128,320c4.6,0,9.1,0.1,13.5,0.4c7.1,0.4,12.5,6.4,12.1,13.5s-6.4,12.5-13.5,12.1c-3.9-0.2-8-0.3-12.1-0.3
		c-99.7,0-102.3,60.9-102.4,64.1c0,7,5.8,12.7,12.8,12.7h76.8c7.1,0,12.8,5.7,12.8,12.8S122.3,448,115.2,448L115.2,448z"/>
	<path d="M128,294.4c-42.3,0-76.8-34.5-76.8-76.8s34.5-76.8,76.8-76.8s76.8,34.5,76.8,76.8S170.3,294.4,128,294.4z M128,166.4
		c-28.2,0-51.2,23-51.2,51.2s23,51.2,51.2,51.2s51.2-23,51.2-51.2S156.2,166.4,128,166.4z"/>
</g>
</svg>
